<svg id="圖層_1" data-name="圖層 1" xmlns="http://www.w3.org/2000/svg" viewBox="0 0 32 32"><defs><style>.cls-1{fill:#1e96fc;}</style></defs><path class="cls-1" d="M27.1,26.36l-.59.59-.16.07a3,3,0,0,1-1.84.47,3.17,3.17,0,0,1-2.06-1L6.11,10.13l-.85-.84a2.84,2.84,0,0,1-.86-2.6,7.58,7.58,0,0,1,.5-1.35l.59-.59.16-.07A3.05,3.05,0,0,1,7.49,4.2a3.18,3.18,0,0,1,2.06,1L25.89,21.56c.28.28.57.56.85.85A2.83,2.83,0,0,1,27.6,25,7.88,7.88,0,0,1,27.1,26.36Z"/><path class="cls-1" d="M5.48,26.93l-.55-.55A6.93,6.93,0,0,1,4.4,25a2.88,2.88,0,0,1,.93-2.66L22.5,5.18,22.74,5a2.93,2.93,0,0,1,2.13-.75,3.48,3.48,0,0,1,1.66.58l.55.55a6.21,6.21,0,0,1,.4.82,2.94,2.94,0,0,1-.8,3.19L9.49,26.53c-.07.07-.14.15-.21.21A3.05,3.05,0,0,1,7,27.49,3.67,3.67,0,0,1,5.48,26.93Z"/></svg>