<svg xmlns="http://www.w3.org/2000/svg" viewBox="0 0 60 60"><defs><style>.cls-1{fill:#1e96fc;}.cls-2{fill:#fcf300;}.cls-3{fill:none;stroke:#1c1c1c;stroke-linecap:round;stroke-linejoin:round;stroke-width:3px;}</style></defs><g id="paper"><path class="cls-1" d="M51.55,30.17H42.17a12.72,12.72,0,0,0-3-4.76l5-11.3a3.15,3.15,0,1,0-5.75-2.55L33.72,22.2a11.33,11.33,0,0,0-1.15-.28V9.57a3.14,3.14,0,1,0-6.28,0V22.28c-.31.1-.6.21-.9.33l-4.9-11a3.14,3.14,0,1,0-5.74,2.55l5.47,12.34c-.12.14-.22.29-.33.44L11.6,22.1a3.14,3.14,0,0,0-3.14,5.45l9.06,5.23a13,13,0,0,0-.12,1.66,12.75,12.75,0,0,0,25.14,3.05h9a3.66,3.66,0,1,0,0-7.32Z"/></g><g id="rock"><path class="cls-2" d="M42.4,34.93a13.08,13.08,0,1,0-18,12.12v4.4a4.11,4.11,0,0,0,4.11,4.11h1.59a4.11,4.11,0,0,0,4.11-4.11v-4.4A13.07,13.07,0,0,0,42.4,34.93Z"/></g><g id="scissors"><path class="cls-3" d="M34.24,46.72a12.75,12.75,0,0,0,3.91-21l5.13-11.57a3.15,3.15,0,0,0-5.75-2.55l-4.88,11a9.28,9.28,0,0,0-.91-.22V10.06a3.15,3.15,0,1,0-6.29,0V22.77a12.77,12.77,0,0,0-1,24"/></g></svg>