<?xml version="1.0" encoding="UTF-8"?><svg xmlns="http://www.w3.org/2000/svg" viewBox="0 0 32 32"><defs><style>.d{fill:#979797;}</style></defs><g id="a"/><g id="b"/><g id="c"><g><path class="d" d="M19.8,28.57h-7.57c-.15-.01-.31-.03-.46-.04-1-.03-2-.07-2.97-.3-2.08-.5-3.63-1.68-4.55-3.63-.57-1.21-.74-2.51-.75-3.82-.03-2.71-.05-5.42-.04-8.13,0-1.3,.01-2.61,.33-3.88,.55-2.22,1.84-3.81,3.98-4.68,1.15-.47,2.36-.6,3.58-.61,2.55-.03,5.11-.05,7.66-.04,1.34,0,2.69,0,4.01,.28,2.44,.53,4.15,1.93,5,4.3,.41,1.14,.51,2.33,.51,3.53,0,2.9,.02,5.8,0,8.69,0,.82-.07,1.65-.2,2.47-.26,1.67-1.01,3.08-2.32,4.17-1.28,1.06-2.8,1.48-4.43,1.59-.59,.04-1.19,.07-1.79,.1Zm-3.8-2.22v-.04c.66,0,1.33,.02,1.99,0,1.43-.05,2.87-.03,4.29-.21,1.93-.24,3.24-1.35,3.72-3.28,.19-.76,.26-1.57,.27-2.36,.04-2.55,.05-5.11,.04-7.66,0-1.01-.06-2.03-.18-3.04-.26-2.02-1.52-3.38-3.51-3.78-.86-.17-1.75-.22-2.63-.24-2.2-.04-4.4-.03-6.61-.02-1.26,0-2.52-.01-3.77,.21-1.91,.34-3.21,1.55-3.6,3.45-.17,.82-.22,1.67-.24,2.51-.04,2.01-.06,4.03-.04,6.04,.02,1.42,.05,2.85,.19,4.26,.13,1.38,.79,2.52,2,3.27,.82,.51,1.74,.71,2.69,.75,1.8,.06,3.6,.09,5.4,.14Z"/><path class="d" d="M9.55,15.99c0-3.57,2.92-6.47,6.48-6.45,3.58,.02,6.47,2.92,6.45,6.48-.02,3.57-2.91,6.45-6.46,6.44-3.57,0-6.47-2.91-6.46-6.47Zm2.28,0c0,2.32,1.86,4.18,4.18,4.18,2.32,0,4.18-1.86,4.19-4.17,0-2.33-1.86-4.2-4.19-4.2-2.32,0-4.18,1.87-4.18,4.19Z"/><path class="d" d="M24.23,9.27c0,.83-.65,1.51-1.48,1.52-.84,0-1.53-.66-1.53-1.5,0-.83,.65-1.5,1.48-1.51,.85-.01,1.52,.65,1.53,1.49Z"/></g></g></svg>