<?xml version="1.0" encoding="utf-8"?>
<!-- Generator: Adobe Illustrator 26.1.0, SVG Export Plug-In . SVG Version: 6.00 Build 0)  -->
<svg version="1.1" id="圖層_1" xmlns="http://www.w3.org/2000/svg" xmlns:xlink="http://www.w3.org/1999/xlink" x="0px" y="0px"
	 viewBox="0 0 32 32" style="enable-background:new 0 0 32 32;" xml:space="preserve">
<style type="text/css">
	.st0{fill:#FFFFFF;}
</style>
<path class="st0" d="M29.1,15.3V16c0,0,0,0.1,0,0.1c-0.1,0.5-0.4,1-0.8,1.4c-0.5,0.4-1.2,0.7-1.9,0.6H5.5c-0.8,0-1.6-0.4-2.1-1.1
	C3.2,16.8,3,16.4,2.9,16v-0.7c0-0.1,0-0.1,0-0.1c0.1-0.5,0.4-1,0.8-1.4c0.5-0.4,1.2-0.7,1.9-0.6h20.9c0.8,0,1.6,0.4,2.1,1.1
	C28.8,14.6,29,14.9,29.1,15.3z"/>
<path class="st0" d="M2.9,6.7V6.1C3,5.7,3.2,5.3,3.4,4.9c0.5-0.7,1.3-1.1,2.2-1.1h21.2c0.7,0,1.3,0.3,1.8,0.8
	c0.3,0.4,0.6,0.9,0.7,1.4v0.7C29.1,7,29,7.2,28.9,7.5c-0.4,0.9-1.4,1.5-2.4,1.5H5.3C4.6,8.9,3.9,8.5,3.5,8C3.2,7.6,3,7.2,2.9,6.7z"
	/>
<path class="st0" d="M29.1,24.7v0.7c-0.1,0.4-0.3,0.8-0.5,1.2c-0.5,0.7-1.3,1.1-2.2,1H5.3c-0.7,0-1.3-0.3-1.8-0.8
	c-0.3-0.4-0.6-0.9-0.7-1.4v-0.7c0.1-0.3,0.2-0.5,0.3-0.7c0.4-0.9,1.4-1.5,2.4-1.5h21.2c0.7,0,1.4,0.4,1.8,0.9
	C28.8,23.8,29,24.2,29.1,24.7z"/>
</svg>
