<?xml version="1.0" encoding="UTF-8"?><svg xmlns="http://www.w3.org/2000/svg" xmlns:xlink="http://www.w3.org/1999/xlink" viewBox="0 0 60 59.29"><defs><style>.e{fill:none;}.f{fill:#ff9797;}.g{clip-path:url(#d);}</style><clipPath id="d"><rect class="e" x="0" y="-.36" width="60" height="60"/></clipPath></defs><g id="a"/><g id="b"/><g id="c"><g class="g"><path class="f" d="M51.55,30.17h-9.21c-.65-1.88-1.71-3.56-3.09-4.94l4.93-11.12c.7-1.59-.01-3.44-1.6-4.15-1.59-.7-3.44,.01-4.15,1.6l-4.61,10.41c-.41-.12-.82-.23-1.25-.31V9.57c0-1.74-1.41-3.14-3.14-3.14s-3.14,1.41-3.14,3.14v12.38c-.35,.1-.7,.23-1.04,.36l-4.76-10.74c-.7-1.59-2.56-2.3-4.15-1.6-1.59,.7-2.3,2.56-1.6,4.15l5.28,11.92c-.18,.21-.34,.43-.51,.65l-7.92-4.57c-1.5-.87-3.42-.35-4.29,1.15-.87,1.5-.35,3.42,1.15,4.29l8.63,4.98c-.1,.64-.16,1.29-.16,1.95,0,5.49,3.38,10.18,8.17,12.12v25.48c0,2.27,1.84,4.11,4.11,4.11h1.6c2.27,0,4.11-1.84,4.11-4.11v-25.48c3.89-1.57,6.84-4.96,7.82-9.11h8.82c2.02,0,3.66-1.64,3.66-3.66s-1.64-3.66-3.66-3.66Z"/></g></g></svg>