<svg xmlns="http://www.w3.org/2000/svg" xmlns:xlink="http://www.w3.org/1999/xlink" viewBox="0 0 60 59.29"><defs><style>.cls-1{fill:none;}.cls-2{clip-path:url(#clip-path);}.cls-3{fill:#ffc600;}</style><clipPath id="clip-path"><rect class="cls-1" y="-0.36" width="60" height="60"/></clipPath></defs><g id="scissors"><g class="cls-2"><path class="cls-3" d="M51.55,30.17H42.34a13.29,13.29,0,0,0-3.09-4.94l4.93-11.12a3.15,3.15,0,1,0-5.75-2.55L33.82,22a12.68,12.68,0,0,0-1.25-.31V9.57a3.14,3.14,0,1,0-6.28,0V21.94c-.35.11-.7.23-1,.36L20.49,11.56a3.14,3.14,0,1,0-5.74,2.55L20,26c-.18.21-.34.43-.51.65L11.6,22.1a3.14,3.14,0,0,0-3.14,5.45l8.62,5a13.86,13.86,0,0,0-.16,1.95A13.08,13.08,0,0,0,25.1,46.59V72.07a4.1,4.1,0,0,0,4.1,4.11h1.6a4.1,4.1,0,0,0,4.1-4.11V46.59a13.08,13.08,0,0,0,7.83-9.1h8.82a3.66,3.66,0,1,0,0-7.32Z"/></g></g></svg>