<svg xmlns="http://www.w3.org/2000/svg" xmlns:xlink="http://www.w3.org/1999/xlink" viewBox="0 0 60 59.29"><defs><style>.cls-1{fill:none;}.cls-2{clip-path:url(#clip-path);}.cls-3{fill:#ffc600;}</style><clipPath id="clip-path"><rect class="cls-1" y="-0.36" width="60" height="60"/></clipPath></defs><g id="scissors"><g class="cls-2"><path class="cls-3" d="M42.41,9.53a3.14,3.14,0,0,0-4.15,1.6L33.49,21.89c-.34-.1-.68-.18-1-.25V9.57a3.14,3.14,0,1,0-6.28,0V22A13.07,13.07,0,0,0,25.1,46.59V72.07a4.1,4.1,0,0,0,4.1,4.11h1.6a4.1,4.1,0,0,0,4.1-4.11V46.59A13,13,0,0,0,39,25l5-11.33A3.15,3.15,0,0,0,42.41,9.53Z"/></g></g></svg>