<?xml version="1.0" encoding="UTF-8"?><svg xmlns="http://www.w3.org/2000/svg" viewBox="0 0 554.18 547.09"><defs><style>.d{fill:#f4b1b2;}.e{fill:#ffb6b6;}.f{fill:#fcf300;}.g{fill:#1e96fc;}.h{fill:none;stroke:#f4b1b2;stroke-linecap:round;stroke-linejoin:round;stroke-width:3px;}</style></defs><g id="a"/><g id="b"/><g id="c"><g><path class="h" d="M105.83,385.14c-21.31-33.06-33.67-72.42-33.67-114.68,0-66.07,30.23-125.07,77.61-163.94"/><polygon class="d" points="150.1 122.35 147.12 121.99 148.93 107.31 134.15 106.57 134.3 103.58 152.3 104.47 150.1 122.35"/></g><g><path class="h" d="M421.57,431.79c-37.01,31.57-85.01,50.62-137.47,50.62s-98.32-18.22-134.99-48.54"/><polygon class="d" points="164.6 430.5 164.82 433.49 150.07 434.54 152.19 449.18 149.22 449.61 146.63 431.78 164.6 430.5"/></g><g><path class="h" d="M199.05,76.27c26.03-11.42,54.8-17.76,85.05-17.76,117.06,0,211.95,94.89,211.95,211.95,0,39.21-10.65,75.94-29.21,107.45"/><polygon class="d" points="461.07 363.15 463.99 362.46 467.35 376.87 481.48 372.46 482.37 375.33 465.17 380.69 461.07 363.15"/></g><circle class="f" cx="279.76" cy="271.09" r="178.63"/><path class="g" d="M202.12,211.37c4.12-.14,7.35-3.6,7.2-7.72l-.97-27.95c.82-.15,1.64-.32,2.45-.54l12.52,25.81c1.8,3.71,6.27,5.26,9.98,3.46s5.26-6.27,3.46-9.98l-12.87-26.51c9.76-9.05,12.93-23.74,6.81-36.33-5.69-11.73-17.78-18.24-30.04-17.42l-26.43-54.46c-2.35-4.85-8.19-6.87-13.04-4.52l-3.41,1.65c-4.85,2.35-6.87,8.19-4.52,13.04l26.43,54.46c-8.23,9.12-10.59,22.65-4.9,34.38,3.88,7.99,10.73,13.54,18.57,16.03l1.02,29.41c.14,4.12,3.6,7.35,7.72,7.2Z"/><path class="g" d="M430.43,322.15l-15.48,15.48c-4.25-2.05-8.86-3.11-13.49-3.11l-10.4-26.97c-1.48-3.85-5.81-5.76-9.65-4.28-3.85,1.48-5.76,5.81-4.28,9.65l9.74,25.24c-.89,.48-1.77,1-2.62,1.57l-20.31-20.31c-2.92-2.92-7.64-2.92-10.56,0s-2.92,7.64,0,10.56l20.79,20.79c-.42,.77-.79,1.55-1.14,2.35l-26.04-10.05c-3.85-1.48-8.17,.43-9.65,4.28-1.48,3.85,.43,8.17,4.28,9.65l28.89,11.15c.05,.65,.15,1.3,.24,1.95l-20.99,5.62c-3.98,1.07-6.35,5.16-5.28,9.14,1.07,3.98,5.16,6.35,9.14,5.28l22.86-6.13c.91,1.23,1.89,2.43,3.01,3.55,9.22,9.22,22.78,11.41,34.09,6.63l42.8,42.8c3.81,3.81,9.99,3.81,13.8,0l2.68-2.68c3.81-3.81,3.81-9.99,0-13.8l-42.8-42.8c3.88-9.17,3.17-19.83-2.16-28.44l14.82-14.82c3.39-3.39,3.39-8.9,0-12.29-3.39-3.39-8.9-3.39-12.29,0Z"/><path class="g" d="M196.51,386.24l-2.7-2.7c5.97-11.68,4.09-26.34-5.69-36.11-12.13-12.13-31.8-12.13-43.94,0-9.22,9.22-11.41,22.78-6.63,34.09l-50.43,49.89c-3.81,3.81-3.81,9.99,0,13.8l2.68,2.68c3.81,3.81,9.99,3.81,13.8,0l50.43-49.89c8.96,3.79,19.33,3.18,27.84-1.81l2.35,2.35c3.39,3.39,8.9,3.39,12.29,0s3.39-8.9,0-12.29Z"/><g><path class="g" d="M158.82,310.58h-2.39v.25l.5,10.92h-5.63l.5-10.21-.5-18.78h9.12c2.69,0,4.83,.73,6.43,2.18,1.6,1.46,2.39,3.39,2.39,5.8,0,1.82-.47,3.48-1.41,4.98-.94,1.5-2.21,2.68-3.8,3.55l7.31,10.33-5.08,2.6-6.55-11.68c-.2,.03-.49,.04-.88,.04Zm.08-13.57h-2.06l-.29,9.49h2.86c1.4,0,2.48-.46,3.25-1.39,.77-.92,1.16-2.24,1.16-3.95,0-2.77-1.64-4.16-4.91-4.16Z"/><path class="g" d="M176.33,303.86c1.93-2.49,4.19-3.74,6.78-3.74s4.61,.84,6.05,2.52c1.44,1.68,2.16,3.91,2.16,6.68,0,3.7-.93,6.77-2.79,9.22-1.86,2.45-4.21,3.68-7.04,3.68-2.33,0-4.25-.88-5.78-2.62-1.53-1.75-2.29-3.96-2.29-6.62,0-3.58,.97-6.62,2.9-9.12Zm10.29,7.65c0-4.06-1.39-6.09-4.16-6.09s-4.33,1.9-4.33,5.71c0,1.99,.41,3.54,1.22,4.66s1.88,1.68,3.21,1.68,2.34-.51,3.02-1.53c.69-1.02,1.03-2.5,1.03-4.43Z"/><path class="g" d="M202.17,305.58c-1.23,0-2.18,.44-2.86,1.32-.67,.88-1.01,2.23-1.01,4.05s.34,3.28,1.03,4.39c.69,1.11,1.69,1.66,3,1.66,.67,0,1.33-.21,1.97-.63,.64-.42,1.13-.84,1.47-1.26l.46-.67,2.1,2.18c-.08,.14-.19,.34-.31,.59-.13,.25-.43,.7-.92,1.34-.49,.64-1.01,1.21-1.55,1.7-.55,.49-1.25,.94-2.12,1.34-.87,.41-1.78,.61-2.73,.61-2.1,0-3.81-.85-5.12-2.56-1.32-1.71-1.97-3.93-1.97-6.68,0-3.42,.99-6.41,2.98-8.99,1.99-2.58,4.31-3.86,6.97-3.86,.81,0,1.62,.12,2.44,.36s1.64,.61,2.48,1.11l-2.94,5.17c-1.01-.78-2.13-1.18-3.36-1.18Z"/><path class="g" d="M224.22,322.17l-7.9-11.64v.29l.46,9.87-5.67,1.05,.5-10.21-.5-21.25,5.75-1.05-.55,20.29,8.4-9.2,3.95,2.69-7.35,6.89,7.69,9.07-4.79,3.19Z"/></g><g><path class="g" d="M284.6,253.71c2.69,0,4.83,.76,6.43,2.29,1.6,1.53,2.39,3.62,2.39,6.28s-1.01,4.94-3.02,6.83-4.48,2.84-7.39,2.84h-2.39l.5,10.75h-5.63l.5-10.21-.5-18.78h9.12Zm-1.51,4.24h-2.06l-.29,9.91h2.86c1.4,0,2.48-.46,3.25-1.39,.77-.92,1.16-2.24,1.16-3.95,0-3.05-1.64-4.58-4.91-4.58Z"/><path class="g" d="M296.09,281.12c-1.05-1.05-1.58-2.46-1.58-4.24s.81-3.32,2.44-4.62c1.62-1.3,3.6-1.95,5.92-1.95h2.86v-.71c0-1.37-.28-2.31-.84-2.81-.56-.5-1.61-.76-3.15-.76-.64,0-1.41,.13-2.29,.4-.88,.27-1.87,.68-2.96,1.24l-1.22-3.32c1.2-.84,2.67-1.6,4.39-2.27,1.72-.67,3.14-1.01,4.26-1.01,4.4,0,6.59,2.13,6.59,6.38v8.23c0,1.57,.49,3.32,1.47,5.25l-4.45,1.89c-.7-1.34-1.22-2.55-1.55-3.61-1.54,2.32-3.49,3.49-5.84,3.49-1.65,0-3-.53-4.05-1.58Zm5.82-2.71c1.12,0,2.39-.57,3.82-1.72v-2.81c-1.48-.34-2.69-.5-3.61-.5-1.76,0-2.65,.78-2.65,2.35,0,.81,.22,1.46,.67,1.95,.45,.49,1.04,.74,1.76,.74Z"/><path class="g" d="M326.86,261.48c1.79,0,3.3,.78,4.52,2.35,1.22,1.57,1.83,3.68,1.83,6.34,0,3.72-.96,6.74-2.88,9.05-1.92,2.31-4.31,3.47-7.16,3.47-.59,0-1.25-.04-1.97-.13l.21,8.02-5.75,1.05,.55-19.15h.04c-.11-3.75-.42-7.11-.92-10.08l5.08-1.09c.17,1.48,.31,2.96,.42,4.41,.06-.14,.34-.53,.86-1.16,.52-.63,1.28-1.3,2.29-2.02,1.01-.71,1.97-1.07,2.9-1.07Zm-1.64,5.46c-1.48,0-2.93,.41-4.33,1.22v3.61l.17,6.01c1.51,.25,2.66,.38,3.44,.38,2.69,0,4.03-1.87,4.03-5.61s-1.11-5.61-3.32-5.61Z"/><path class="g" d="M347.9,261.48c1.79,0,3.3,.78,4.52,2.35,1.22,1.57,1.83,3.68,1.83,6.34,0,3.72-.96,6.74-2.88,9.05-1.92,2.31-4.31,3.47-7.16,3.47-.59,0-1.25-.04-1.97-.13l.21,8.02-5.75,1.05,.55-19.15h.04c-.11-3.75-.42-7.11-.92-10.08l5.08-1.09c.17,1.48,.31,2.96,.42,4.41,.06-.14,.34-.53,.86-1.16,.52-.63,1.28-1.3,2.29-2.02,1.01-.71,1.97-1.07,2.9-1.07Zm-1.64,5.46c-1.48,0-2.93,.41-4.33,1.22v3.61l.17,6.01c1.51,.25,2.66,.38,3.44,.38,2.69,0,4.03-1.87,4.03-5.61s-1.11-5.61-3.32-5.61Z"/><path class="g" d="M365.29,278.41c.81,0,1.67-.21,2.56-.63,.9-.42,1.6-.84,2.1-1.26l.76-.63,1.93,2.35c-.28,.48-.71,1.02-1.3,1.64-.59,.62-1.18,1.14-1.79,1.58-.6,.43-1.4,.83-2.39,1.18-.99,.35-2.02,.53-3.09,.53-2.27,0-4.12-.86-5.54-2.58-1.43-1.72-2.14-3.94-2.14-6.66,0-3.42,.99-6.41,2.98-8.99,1.99-2.58,4.31-3.86,6.97-3.86,2.04,0,3.63,.57,4.77,1.72,1.13,1.15,1.7,2.76,1.7,4.83,0,1.23-.21,2.63-.63,4.2l-.84,.88-10.5,.97c.48,3.17,1.96,4.75,4.45,4.75Zm0-13.02c-1.23,0-2.27,.5-3.11,1.49-.84,1-1.33,2.26-1.47,3.8l7.14-.88c.08-.64,.13-1.18,.13-1.6,0-1.88-.9-2.81-2.69-2.81Z"/><path class="g" d="M376,262.4l5.08-1.09c.25,2.16,.42,4.2,.5,6.13,2.55-3.95,4.94-5.92,7.18-5.92l-.46,6.55c-1.62,0-2.91,.15-3.84,.44-.94,.29-1.9,.88-2.88,1.74v1.51l.46,9.87-5.63,1.05,.5-10.21c-.11-3.75-.42-7.11-.92-10.08Z"/></g><g><path class="g" d="M251.21,179.68c2.38,2.38,4.76,3.57,7.14,3.57,1.23,0,2.22-.29,2.96-.86,.74-.57,1.11-1.32,1.11-2.23s-.45-1.68-1.34-2.31-1.98-1.18-3.25-1.66c-1.27-.48-2.54-1.01-3.8-1.62-1.26-.6-2.34-1.46-3.23-2.58-.9-1.12-1.34-2.48-1.34-4.08,0-2.52,1.05-4.7,3.15-6.53,2.1-1.83,4.59-2.75,7.48-2.75,1.32,0,2.59,.14,3.82,.42s2.42,.69,3.57,1.22l-2.86,6.13c-.79-.62-1.86-1.18-3.21-1.7-1.36-.52-2.55-.78-3.57-.78s-1.85,.25-2.48,.74c-.63,.49-.95,1.14-.95,1.95s.45,1.53,1.34,2.16c.9,.63,1.98,1.18,3.25,1.66,1.27,.48,2.55,1,3.82,1.58,1.27,.57,2.36,1.42,3.26,2.54,.9,1.12,1.34,2.48,1.34,4.07,0,2.63-1.05,4.94-3.15,6.91-2.1,1.97-4.55,2.96-7.35,2.96-2.1,0-3.96-.5-5.59-1.51-1.43-.87-2.44-1.64-3.02-2.31l-.38-.46,3.28-4.54Z"/><path class="g" d="M278.18,171.87c-1.23,0-2.18,.44-2.86,1.32-.67,.88-1.01,2.23-1.01,4.05s.34,3.28,1.03,4.39c.69,1.11,1.69,1.66,3,1.66,.67,0,1.33-.21,1.97-.63,.64-.42,1.13-.84,1.47-1.26l.46-.67,2.1,2.18c-.08,.14-.19,.34-.31,.59-.13,.25-.43,.7-.92,1.34-.49,.64-1.01,1.21-1.55,1.7-.55,.49-1.25,.94-2.12,1.34-.87,.41-1.78,.61-2.73,.61-2.1,0-3.81-.85-5.12-2.56-1.32-1.71-1.97-3.93-1.97-6.68,0-3.42,.99-6.41,2.98-8.99,1.99-2.58,4.31-3.86,6.97-3.86,.81,0,1.62,.12,2.44,.36s1.64,.61,2.48,1.11l-2.94,5.17c-1.01-.78-2.13-1.18-3.36-1.18Z"/><path class="g" d="M286.83,160.5c0-.94,.36-1.78,1.09-2.52,.73-.74,1.57-1.11,2.52-1.11s1.68,.26,2.18,.78c.5,.52,.76,1.29,.76,2.33s-.36,1.93-1.07,2.67c-.71,.74-1.54,1.11-2.48,1.11s-1.67-.31-2.21-.92c-.53-.62-.8-1.39-.8-2.33Zm5.92,6.15l-.5,10.46,.46,9.87-5.63,1.05,.5-10.21-.46-10.12,5.63-1.05Z"/><path class="g" d="M303.72,184.13c1.46,0,2.18-.64,2.18-1.93,0-.45-.32-.87-.95-1.26s-1.4-.78-2.31-1.18c-.91-.39-1.82-.83-2.73-1.32-.91-.49-1.68-1.17-2.31-2.04-.63-.87-.94-1.86-.94-2.98,0-1.88,.83-3.51,2.48-4.91s3.56-2.1,5.71-2.1c1.01,0,2,.12,2.96,.36,.97,.24,1.9,.61,2.79,1.11l-2.81,5.12c-.2-.17-.45-.38-.76-.63-.31-.25-.89-.58-1.74-.99-.85-.41-1.61-.61-2.27-.61s-1.16,.15-1.51,.44c-.35,.29-.53,.7-.53,1.22s.48,1.04,1.45,1.55c.97,.52,2.02,.99,3.17,1.43,1.15,.43,2.21,1.15,3.17,2.14,.97,.99,1.45,2.18,1.45,3.55,0,1.96-.81,3.68-2.42,5.17-1.61,1.49-3.47,2.23-5.57,2.23-1.34,0-2.6-.29-3.76-.88-1.16-.59-2-1.18-2.5-1.76l-.76-.88,3.32-3.86c.17,.22,.41,.5,.71,.84,.31,.34,.92,.78,1.83,1.34,.91,.56,1.79,.84,2.63,.84Z"/><path class="g" d="M320.27,184.13c1.46,0,2.18-.64,2.18-1.93,0-.45-.32-.87-.95-1.26s-1.4-.78-2.31-1.18c-.91-.39-1.82-.83-2.73-1.32-.91-.49-1.68-1.17-2.31-2.04-.63-.87-.94-1.86-.94-2.98,0-1.88,.83-3.51,2.48-4.91s3.56-2.1,5.71-2.1c1.01,0,2,.12,2.96,.36,.97,.24,1.9,.61,2.79,1.11l-2.81,5.12c-.2-.17-.45-.38-.76-.63-.31-.25-.89-.58-1.74-.99-.85-.41-1.61-.61-2.27-.61s-1.16,.15-1.51,.44c-.35,.29-.53,.7-.53,1.22s.48,1.04,1.45,1.55c.97,.52,2.02,.99,3.17,1.43,1.15,.43,2.21,1.15,3.17,2.14,.97,.99,1.45,2.18,1.45,3.55,0,1.96-.81,3.68-2.42,5.17-1.61,1.49-3.47,2.23-5.57,2.23-1.34,0-2.6-.29-3.76-.88-1.16-.59-2-1.18-2.5-1.76l-.76-.88,3.32-3.86c.17,.22,.41,.5,.71,.84,.31,.34,.92,.78,1.83,1.34,.91,.56,1.79,.84,2.63,.84Z"/><path class="g" d="M332.11,170.14c1.93-2.49,4.19-3.74,6.78-3.74s4.61,.84,6.05,2.52c1.44,1.68,2.16,3.91,2.16,6.68,0,3.7-.93,6.77-2.79,9.22-1.86,2.45-4.21,3.68-7.04,3.68-2.33,0-4.25-.88-5.78-2.62-1.53-1.75-2.29-3.96-2.29-6.62,0-3.58,.97-6.62,2.9-9.12Zm10.29,7.65c0-4.06-1.39-6.09-4.16-6.09s-4.33,1.9-4.33,5.71c0,1.99,.41,3.54,1.22,4.66s1.88,1.68,3.21,1.68,2.34-.51,3.02-1.53c.69-1.02,1.03-2.5,1.03-4.43Z"/><path class="g" d="M350.26,167.75l5.08-1.09c.25,2.16,.42,4.2,.5,6.13,2.55-3.95,4.94-5.92,7.18-5.92l-.46,6.55c-1.62,0-2.91,.15-3.84,.44-.94,.29-1.9,.88-2.88,1.74v1.51l.46,9.87-5.63,1.05,.5-10.21c-.11-3.75-.42-7.11-.92-10.08Z"/><path class="g" d="M372.02,184.13c1.46,0,2.18-.64,2.18-1.93,0-.45-.32-.87-.95-1.26s-1.4-.78-2.31-1.18c-.91-.39-1.82-.83-2.73-1.32-.91-.49-1.68-1.17-2.31-2.04-.63-.87-.94-1.86-.94-2.98,0-1.88,.83-3.51,2.48-4.91s3.56-2.1,5.71-2.1c1.01,0,2,.12,2.96,.36,.97,.24,1.9,.61,2.79,1.11l-2.81,5.12c-.2-.17-.45-.38-.76-.63-.31-.25-.89-.58-1.74-.99-.85-.41-1.61-.61-2.27-.61s-1.16,.15-1.51,.44c-.35,.29-.53,.7-.53,1.22s.48,1.04,1.45,1.55c.97,.52,2.02,.99,3.17,1.43,1.15,.43,2.21,1.15,3.17,2.14,.97,.99,1.45,2.18,1.45,3.55,0,1.96-.81,3.68-2.42,5.17-1.61,1.49-3.47,2.23-5.57,2.23-1.34,0-2.6-.29-3.76-.88-1.16-.59-2-1.18-2.5-1.76l-.76-.88,3.32-3.86c.17,.22,.41,.5,.71,.84,.31,.34,.92,.78,1.83,1.34,.91,.56,1.79,.84,2.63,.84Z"/></g><g><path class="e" d="M326.92,35.51c.72,.43,1.35,.99,1.88,1.7l-1.83,1.53c-.82-.94-1.78-1.5-2.86-1.68-.58-.1-1.05-.06-1.43,.12-.38,.18-.6,.49-.67,.93-.05,.31-.02,.57,.09,.79,.11,.22,.34,.45,.69,.69,.35,.24,.87,.54,1.58,.91,1.34,.7,2.3,1.43,2.86,2.21,.56,.78,.74,1.78,.53,3-.15,.87-.5,1.6-1.05,2.19-.55,.59-1.28,1-2.17,1.23s-1.91,.25-3.05,.05c-1.14-.19-2.12-.54-2.94-1.05-.82-.51-1.49-1.12-2.02-1.83l1.98-1.55c.46,.55,.96,.98,1.49,1.31s1.13,.54,1.8,.66c.68,.12,1.25,.06,1.7-.18s.71-.62,.81-1.16c.06-.35,.03-.65-.07-.91-.11-.26-.33-.51-.66-.76-.33-.25-.82-.54-1.47-.87-1.46-.73-2.46-1.49-3-2.28-.54-.79-.71-1.71-.54-2.76,.14-.8,.47-1.48,1-2.01,.53-.54,1.21-.91,2.03-1.11,.82-.2,1.71-.22,2.68-.06,1.05,.18,1.93,.48,2.65,.9Z"/><path class="e" d="M337.5,40.93c.54,.34,1.02,.79,1.44,1.34l-1.76,1.58c-.56-.65-1.17-1.05-1.85-1.2-.7-.15-1.29,0-1.76,.43s-.83,1.24-1.08,2.4c-.24,1.12-.24,1.95,.02,2.49s.73,.89,1.4,1.04c.36,.08,.7,.09,1.01,.04,.32-.05,.71-.16,1.18-.32l.95,2.25c-1.23,.61-2.51,.77-3.84,.48-1.08-.23-1.96-.67-2.64-1.29s-1.15-1.4-1.39-2.33c-.25-.92-.25-1.94,0-3.06s.67-2.06,1.28-2.83,1.36-1.31,2.25-1.63,1.85-.36,2.89-.13c.73,.16,1.37,.41,1.9,.75Z"/><path class="e" d="M343.86,42.53l-2.66,10.5-3.12-.79,2.66-10.5,3.12,.79Zm1.03-5.1c.26,.42,.33,.89,.2,1.41-.13,.51-.41,.89-.85,1.14-.43,.25-.92,.3-1.46,.17-.54-.14-.94-.42-1.2-.84-.26-.42-.32-.89-.19-1.41,.13-.51,.41-.9,.84-1.15,.43-.25,.91-.31,1.45-.17,.54,.14,.94,.42,1.21,.84Z"/><path class="e" d="M352.31,44.9c.59,.41,1.07,.89,1.45,1.44l-1.64,1.41c-.69-.78-1.47-1.3-2.33-1.55-.4-.12-.73-.14-.99-.06-.25,.08-.42,.24-.49,.48-.06,.2-.05,.37,0,.52,.06,.15,.22,.34,.49,.56,.26,.22,.68,.51,1.25,.87,.99,.63,1.68,1.27,2.06,1.93s.45,1.43,.19,2.32c-.21,.71-.58,1.26-1.14,1.66-.56,.4-1.22,.63-2.01,.7-.79,.07-1.61-.02-2.47-.27-.88-.25-1.65-.63-2.32-1.12-.67-.49-1.2-1.06-1.58-1.69l2-1.25c.68,.93,1.5,1.54,2.47,1.82,.47,.14,.86,.16,1.18,.07s.52-.29,.61-.61c.07-.25,.08-.46,.01-.63-.06-.17-.23-.37-.49-.58-.26-.21-.7-.5-1.3-.88-.94-.6-1.59-1.24-1.95-1.92-.35-.68-.42-1.42-.18-2.22,.17-.6,.5-1.09,.99-1.46,.48-.38,1.09-.61,1.82-.7,.73-.09,1.52-.02,2.37,.23,.74,.22,1.41,.53,2,.94Z"/><path class="e" d="M361.85,47.99c.57,.44,1.03,.94,1.39,1.5l-1.7,1.34c-.66-.81-1.41-1.36-2.26-1.65-.4-.13-.73-.17-.99-.11-.26,.06-.43,.22-.51,.46-.07,.19-.07,.37-.01,.52s.21,.35,.46,.58c.25,.23,.66,.54,1.22,.93,.96,.67,1.62,1.34,1.98,2.01,.35,.67,.38,1.45,.09,2.32-.24,.7-.64,1.23-1.21,1.6-.57,.38-1.25,.58-2.04,.62-.79,.04-1.61-.09-2.46-.38-.86-.29-1.62-.7-2.27-1.22-.65-.52-1.15-1.11-1.51-1.76l2.05-1.16c.64,.96,1.43,1.6,2.39,1.92,.46,.16,.86,.2,1.18,.12,.32-.08,.53-.27,.64-.58,.08-.25,.1-.46,.04-.63-.06-.18-.21-.38-.47-.6s-.67-.53-1.26-.93c-.92-.64-1.54-1.31-1.86-2.01-.32-.7-.35-1.44-.09-2.23,.2-.59,.55-1.07,1.05-1.42s1.12-.56,1.85-.63c.73-.06,1.52,.05,2.35,.33,.73,.25,1.39,.59,1.96,1.03Z"/><path class="e" d="M373.4,53.61c.5,1.29,.42,2.78-.24,4.47-.42,1.08-.99,1.94-1.7,2.59-.71,.65-1.53,1.05-2.44,1.2-.91,.15-1.88,.03-2.89-.37-1.53-.6-2.55-1.54-3.06-2.83s-.43-2.78,.23-4.48c.42-1.08,.99-1.94,1.7-2.59,.71-.65,1.53-1.05,2.44-1.2s1.88-.03,2.89,.37c1.54,.61,2.57,1.55,3.07,2.84Zm-5.61-.4c-.5,.39-.97,1.13-1.39,2.21-.43,1.1-.6,1.96-.5,2.59,.1,.62,.46,1.06,1.08,1.3,.61,.24,1.16,.16,1.67-.23,.5-.39,.97-1.13,1.39-2.21,.43-1.1,.6-1.96,.5-2.59-.1-.62-.46-1.06-1.08-1.3-.61-.24-1.16-.16-1.67,.23Z"/><path class="e" d="M383.61,56.61l-1.73,2.65c-.33-.25-.61-.43-.84-.53-.58-.26-1.12-.25-1.6,.01-.48,.27-.99,.77-1.52,1.5l-2.18,4.9-2.95-1.31,4.39-9.9,2.57,1.14-.61,2.03c.53-.58,1.1-.97,1.73-1.16,.63-.19,1.23-.16,1.8,.09,.36,.16,.67,.35,.93,.57Z"/><path class="e" d="M390.09,59.96c.51,.51,.9,1.06,1.18,1.67l-1.86,1.11c-.55-.89-1.22-1.53-2.03-1.93-.38-.19-.7-.26-.96-.24-.26,.03-.45,.16-.57,.39-.09,.18-.12,.36-.08,.52,.03,.16,.16,.37,.38,.63s.58,.62,1.08,1.08c.87,.79,1.44,1.54,1.7,2.25,.26,.71,.19,1.48-.21,2.31-.32,.66-.79,1.14-1.41,1.43s-1.31,.41-2.1,.34c-.79-.07-1.58-.3-2.39-.69-.82-.4-1.52-.9-2.09-1.5s-1-1.25-1.26-1.94l2.18-.88c.51,1.04,1.21,1.78,2.12,2.22,.44,.22,.82,.31,1.15,.27,.33-.04,.56-.2,.71-.49,.11-.23,.15-.44,.12-.62-.03-.18-.16-.4-.38-.65-.22-.25-.6-.62-1.13-1.09-.83-.75-1.36-1.5-1.59-2.23-.23-.73-.16-1.47,.2-2.22,.28-.56,.68-.99,1.23-1.27,.54-.29,1.18-.41,1.91-.38,.73,.03,1.5,.25,2.29,.63,.7,.34,1.3,.77,1.81,1.27Z"/><path class="e" d="M405.53,69.8c.09,1.22-.32,2.62-1.23,4.2-.56,.96-1.21,1.74-1.94,2.32-.74,.58-1.51,.92-2.31,1.02-.8,.1-1.59-.07-2.35-.52-.51-.29-.91-.67-1.2-1.12s-.48-.95-.56-1.5l-.66,.82-2.47-1.43,7.59-13.1,2.96,1.32-2.89,4.98c.51-.22,1.05-.32,1.62-.29,.57,.03,1.12,.2,1.63,.5,1.12,.65,1.72,1.58,1.81,2.81Zm-4.13,2.52c.65-1.12,.97-1.96,.95-2.54-.01-.57-.27-1-.76-1.29-.62-.36-1.36-.3-2.22,.17l-2.26,3.9c.01,.38,.1,.73,.26,1.04,.16,.3,.39,.54,.68,.71,1.09,.63,2.21-.03,3.35-2Z"/><path class="e" d="M413.46,81.04l-5.63-3.66c-.41,.82-.54,1.5-.4,2.03s.51,.99,1.12,1.38c.36,.24,.76,.4,1.19,.49,.43,.09,.93,.13,1.51,.12l.13,2.23c-1.61,.15-3.06-.19-4.36-1.04-1.47-.96-2.32-2.12-2.54-3.5-.22-1.38,.14-2.8,1.09-4.26,.6-.92,1.31-1.65,2.11-2.17s1.67-.79,2.59-.8c.92-.01,1.82,.27,2.71,.85,1.31,.85,2.07,1.93,2.28,3.23s-.16,2.68-1.11,4.14c-.24,.38-.47,.69-.68,.94Zm-1.46-3.44c.88-1.41,.84-2.42-.11-3.04-.47-.3-.94-.37-1.42-.19-.48,.18-1,.64-1.57,1.39l3.03,1.97,.08-.12Z"/><path class="e" d="M420.69,88.97c-.02,.22,.05,.45,.21,.67l-1.78,1.31c-.51-.43-.86-.87-1.07-1.31s-.25-.94-.13-1.49c-1.21,.47-2.41,.27-3.6-.59-.87-.63-1.38-1.38-1.54-2.26-.15-.88,.07-1.73,.65-2.55,.69-.96,1.57-1.44,2.65-1.44,1.07,0,2.27,.48,3.61,1.45l.89,.64,.27-.38c.37-.52,.52-.95,.44-1.31-.08-.35-.4-.73-.95-1.12-.29-.21-.66-.42-1.13-.63-.47-.21-.97-.4-1.5-.57l.65-2.15c.7,.19,1.38,.44,2.04,.74,.66,.31,1.24,.64,1.73,1,1.26,.91,1.99,1.83,2.2,2.77,.21,.94-.06,1.93-.8,2.96l-2.46,3.41c-.24,.33-.37,.61-.38,.83Zm-2.26-2.56l1.12-1.56-.64-.46c-.6-.43-1.12-.65-1.56-.65s-.82,.22-1.14,.66c-.25,.35-.36,.69-.32,1.02s.22,.6,.54,.83c.6,.43,1.26,.48,2,.16Z"/><path class="e" d="M426.82,95.98c-.48-.03-.97-.15-1.47-.35s-.96-.47-1.37-.79c-1.85-1.47-1.98-3.23-.37-5.27l3.1-3.95-1.2-.95,1.39-1.76,1.2,.95,1.45-1.84,2.76,1.7-1.68,2.13,1.96,1.54-1.66,1.55-1.68-1.32-3.08,3.91c-.31,.4-.47,.73-.48,1,0,.27,.13,.52,.41,.74,.29,.23,.67,.38,1.13,.45l-.41,2.27Z"/><path class="e" d="M438.82,92.62c.37,.62,.61,1.25,.73,1.91l-2.08,.62c-.31-1-.81-1.79-1.49-2.37-.32-.27-.61-.43-.88-.46-.26-.04-.48,.04-.65,.24-.13,.16-.2,.32-.21,.48,0,.16,.07,.4,.22,.71,.15,.31,.41,.74,.79,1.31,.65,.98,1.01,1.85,1.09,2.6s-.18,1.49-.78,2.19c-.48,.56-1.05,.91-1.72,1.04s-1.38,.08-2.12-.18c-.74-.26-1.46-.68-2.14-1.26-.69-.59-1.25-1.25-1.66-1.97s-.66-1.45-.75-2.19l2.33-.32c.24,1.13,.74,2.02,1.5,2.67,.37,.32,.72,.5,1.05,.54,.33,.05,.6-.06,.81-.3,.17-.2,.26-.39,.27-.57,.01-.18-.06-.43-.21-.73-.16-.3-.43-.74-.82-1.33-.62-.93-.95-1.79-.99-2.55-.04-.77,.2-1.47,.74-2.1,.4-.48,.91-.79,1.5-.93,.6-.14,1.25-.11,1.95,.1,.7,.21,1.39,.61,2.06,1.18,.59,.5,1.07,1.06,1.44,1.68Z"/><path class="e" d="M453.6,103.5c.2,1.28-.24,2.46-1.3,3.55-1.11,1.14-2.31,1.64-3.6,1.51-1.29-.13-2.54-.79-3.76-1.98l-1.09-1.07-3.29,3.37-2.39-2.34,9.88-10.11,3.27,3.19c1.33,1.3,2.1,2.59,2.29,3.87Zm-5.5,2.03c.56,.02,1.14-.27,1.74-.89,1.04-1.06,.96-2.17-.23-3.33l-.85-.83-3.24,3.31,.89,.87c.56,.55,1.12,.84,1.68,.86Z"/><path class="e" d="M453.59,119.12c-.06,.21-.04,.45,.07,.7l-2,.94c-.41-.52-.68-1.02-.79-1.49-.11-.47-.06-.97,.16-1.49-1.28,.22-2.42-.2-3.42-1.27-.73-.79-1.09-1.63-1.07-2.52,.02-.89,.4-1.68,1.14-2.37,.87-.81,1.82-1.11,2.88-.9,1.05,.21,2.14,.92,3.26,2.12l.75,.81,.34-.32c.47-.44,.7-.83,.68-1.2-.01-.36-.25-.79-.71-1.29-.24-.26-.57-.54-.99-.84-.42-.3-.87-.58-1.36-.85l1.05-1.98c.65,.32,1.27,.7,1.86,1.12,.59,.43,1.09,.87,1.51,1.32,1.06,1.13,1.6,2.18,1.62,3.15,.02,.96-.43,1.88-1.37,2.75l-3.07,2.87c-.3,.28-.48,.53-.54,.74Zm-1.72-2.95l1.4-1.31-.54-.58c-.5-.54-.97-.85-1.4-.94-.44-.09-.85,.05-1.25,.43-.32,.3-.49,.61-.51,.94-.02,.33,.1,.63,.37,.92,.5,.54,1.14,.72,1.93,.54Z"/><path class="e" d="M466.74,123.1c-.34,1.16-1.2,2.32-2.59,3.49-.85,.72-1.73,1.23-2.62,1.53s-1.74,.36-2.54,.18c-.8-.18-1.48-.6-2.04-1.27-.7-.83-.98-1.74-.84-2.74l-3.79,3.19-2.34-2.24,11.75-9.9,1.83,2.17-.82,.9c.68-.02,1.29,.1,1.83,.35,.54,.25,1,.6,1.37,1.04,.88,1.04,1.14,2.14,.8,3.3Zm-4.77,.95c.98-.82,1.56-1.5,1.76-2.04,.2-.54,.11-1.03-.26-1.46-.24-.28-.54-.47-.91-.58-.37-.1-.79-.12-1.26-.04l-3.5,2.94c-.21,.74-.1,1.37,.33,1.88,.83,.99,2.11,.76,3.84-.7Z"/><path class="e" d="M474.35,133.01c-.4,1.14-1.32,2.25-2.77,3.34-.89,.67-1.79,1.13-2.7,1.39s-1.76,.27-2.55,.05c-.79-.22-1.45-.68-1.97-1.38-.66-.87-.89-1.79-.69-2.78l-3.96,2.99-2.22-2.36,12.26-9.26,1.71,2.26-.86,.86c.68,.02,1.28,.17,1.81,.45,.53,.28,.96,.65,1.31,1.11,.82,1.08,1.03,2.2,.63,3.34Zm-4.82,.7c1.02-.77,1.64-1.42,1.87-1.95,.22-.53,.16-1.02-.18-1.47-.22-.29-.52-.5-.88-.63-.37-.12-.79-.16-1.26-.11l-3.65,2.75c-.25,.73-.17,1.36,.23,1.9,.78,1.03,2.07,.87,3.87-.5Z"/><path class="e" d="M477.27,146.43l-3.77-5.55c-.69,.6-1.08,1.17-1.15,1.72-.07,.54,.09,1.11,.5,1.71,.24,.36,.54,.67,.9,.92,.36,.25,.81,.48,1.34,.69l-.74,2.11c-1.54-.48-2.75-1.37-3.62-2.65-.98-1.45-1.31-2.86-.98-4.21,.33-1.36,1.21-2.52,2.66-3.5,.91-.62,1.84-1.01,2.79-1.18,.95-.17,1.85-.08,2.7,.27,.85,.34,1.57,.96,2.17,1.83,.88,1.29,1.16,2.58,.84,3.86s-1.19,2.41-2.63,3.39c-.37,.25-.7,.45-1,.6Zm-.02-3.73c1.36-.95,1.72-1.9,1.08-2.85-.31-.46-.72-.7-1.23-.73s-1.17,.2-1.99,.67l2.03,2.99,.12-.08Z"/><path class="e" d="M487.49,150.56l-2.92,1.21c-.13-.4-.26-.7-.39-.91-.34-.54-.78-.84-1.33-.89-.55-.05-1.25,.07-2.1,.38l-4.57,2.82-1.69-2.74,9.22-5.69,1.48,2.4-1.65,1.33c.76-.18,1.46-.18,2.09,.02,.62,.2,1.1,.56,1.43,1.09,.21,.34,.36,.67,.45,1Z"/></g><g><path class="e" d="M209.15,478.1c.74,1.17,.81,2.52,.22,4.05-.61,1.59-1.58,2.6-2.91,3.02s-2.84,.3-4.54-.35l-1.53-.59-1.82,4.72-3.35-1.29,5.45-14.15,4.57,1.76c1.87,.72,3.17,1.67,3.9,2.84Zm-4.56,4.33c.56-.21,1-.75,1.33-1.61,.57-1.48,.03-2.55-1.63-3.19l-1.18-.46-1.79,4.63,1.25,.48c.79,.3,1.46,.35,2.02,.13Z"/><path class="e" d="M216.34,492.63c.05,.23,.2,.44,.43,.62l-1.39,1.92c-.66-.28-1.17-.61-1.52-.99-.35-.38-.56-.88-.62-1.48-1.08,.87-2.38,1.06-3.87,.57-1.1-.36-1.86-.96-2.31-1.82-.44-.85-.5-1.79-.16-2.82,.4-1.21,1.14-1.98,2.24-2.33,1.1-.35,2.48-.24,4.16,.31l1.12,.37,.16-.48c.21-.65,.22-1.14,.02-1.48-.2-.33-.64-.61-1.34-.84-.36-.12-.81-.21-1.36-.27s-1.12-.09-1.72-.09l-.04-2.41c.78-.04,1.56,0,2.33,.1s1.47,.25,2.1,.46c1.58,.52,2.63,1.22,3.15,2.12s.57,1.99,.14,3.29l-1.41,4.28c-.14,.42-.18,.74-.12,.97Zm-3.15-1.89l.64-1.95-.81-.27c-.75-.25-1.35-.3-1.8-.15-.45,.14-.77,.49-.95,1.04-.15,.44-.14,.83,0,1.14,.15,.32,.42,.54,.83,.67,.75,.25,1.45,.08,2.09-.49Z"/><path class="e" d="M230.51,488.28c.41,1.23,.36,2.78-.14,4.65-.31,1.16-.77,2.14-1.37,2.95-.6,.81-1.31,1.38-2.13,1.72-.81,.33-1.67,.38-2.57,.14-1.13-.3-1.93-.93-2.41-1.89l-1.38,5.14-3.44-.54,4.27-15.91,2.94,.79-.17,1.29c.58-.43,1.19-.7,1.83-.81,.63-.11,1.25-.08,1.84,.07,1.41,.38,2.32,1.18,2.73,2.41Zm-3.62,3.77c.35-1.33,.45-2.28,.3-2.88-.16-.59-.53-.97-1.12-1.13-.38-.1-.77-.08-1.16,.05s-.77,.38-1.14,.74l-1.27,4.73c.27,.78,.75,1.27,1.45,1.45,1.34,.36,2.32-.63,2.95-2.97Z"/><path class="e" d="M243,490.97c.48,1.2,.52,2.75,.13,4.65-.24,1.17-.64,2.18-1.2,3.03-.55,.85-1.23,1.46-2.02,1.84s-1.65,.47-2.56,.28c-1.14-.24-1.98-.82-2.52-1.75l-1.08,5.21-3.46-.34,3.35-16.13,2.98,.62-.09,1.3c.56-.46,1.15-.77,1.78-.92,.63-.15,1.24-.16,1.84-.03,1.43,.3,2.38,1.04,2.86,2.25Zm-3.39,3.97c.28-1.34,.32-2.31,.13-2.89-.19-.58-.59-.94-1.19-1.06-.39-.08-.77-.04-1.15,.12-.38,.16-.75,.43-1.09,.8l-1,4.8c.32,.77,.83,1.22,1.53,1.37,1.36,.28,2.28-.76,2.77-3.13Z"/><path class="e" d="M255.04,498.51l-7.12-1.07c-.03,.98,.14,1.7,.52,2.16,.37,.45,.94,.74,1.71,.85,.46,.07,.92,.05,1.38-.05,.46-.1,.96-.29,1.52-.56l1.12,2.12c-1.5,.87-3.08,1.17-4.72,.93-1.86-.28-3.21-1.04-4.04-2.29-.83-1.25-1.11-2.79-.83-4.64,.18-1.17,.54-2.19,1.1-3.05,.56-.87,1.28-1.51,2.17-1.93,.89-.42,1.9-.54,3.02-.38,1.66,.25,2.88,.96,3.66,2.14,.78,1.18,1.03,2.69,.76,4.54-.07,.48-.16,.88-.25,1.22Zm-2.96-2.7c.24-1.76-.25-2.74-1.46-2.92-.59-.09-1.08,.06-1.47,.44-.39,.38-.7,1.07-.92,2.05l3.83,.58,.02-.15Z"/><path class="e" d="M265.23,492.52l-.89,3.27c-.42-.15-.77-.23-1.03-.26-.68-.07-1.23,.11-1.63,.55s-.76,1.11-1.06,2.04l-.6,5.72-3.44-.36,1.2-11.56,3,.31,.05,2.27c.34-.77,.8-1.36,1.38-1.76,.58-.4,1.2-.57,1.87-.5,.42,.04,.8,.13,1.14,.27Z"/><path class="e" d="M280.99,494.72c.71,1.11,1.03,2.64,.96,4.6-.04,1.2-.26,2.25-.67,3.17-.4,.92-.96,1.63-1.67,2.13-.71,.5-1.54,.74-2.49,.7-.63-.02-1.2-.17-1.7-.45-.51-.28-.94-.66-1.29-1.14l-.21,1.11-3.06-.1,.55-16.23,3.47-.25-.21,6.17c.37-.47,.83-.83,1.38-1.09s1.15-.38,1.8-.36c1.38,.05,2.43,.63,3.14,1.74Zm-2.63,4.48c.05-1.39-.08-2.35-.38-2.88-.3-.54-.76-.81-1.37-.83-.77-.03-1.44,.4-2.01,1.29l-.16,4.83c.21,.36,.46,.64,.77,.85,.31,.21,.64,.32,1.01,.33,1.36,.05,2.08-1.15,2.16-3.58Z"/><path class="e" d="M294.02,500.12l-7.2,.14c.13,.97,.43,1.66,.87,2.04,.45,.39,1.05,.57,1.83,.56,.47,0,.92-.1,1.35-.28,.43-.18,.9-.44,1.41-.8l1.46,1.9c-1.33,1.11-2.83,1.67-4.5,1.71-1.88,.04-3.34-.49-4.36-1.58-1.03-1.09-1.56-2.57-1.6-4.43-.02-1.18,.17-2.25,.57-3.2,.4-.95,1.01-1.71,1.82-2.27,.81-.56,1.78-.86,2.92-.88,1.68-.03,3,.47,3.97,1.5,.97,1.03,1.47,2.48,1.51,4.35,0,.48,0,.9-.04,1.25Zm-3.37-2.17c-.06-1.78-.71-2.66-1.93-2.63-.6,.01-1.06,.24-1.38,.68-.32,.44-.51,1.17-.56,2.18l3.87-.08v-.15Z"/><path class="e" d="M305.39,501.74c.14,.2,.35,.33,.63,.42l-.56,2.3c-.72,0-1.31-.12-1.78-.35s-.85-.6-1.13-1.14c-.67,1.22-1.8,1.88-3.37,1.99-1.15,.08-2.09-.19-2.82-.81s-1.13-1.47-1.21-2.55c-.09-1.27,.31-2.27,1.19-3,.88-.73,2.21-1.16,3.97-1.29l1.18-.08-.04-.5c-.05-.68-.23-1.14-.54-1.38-.31-.23-.83-.33-1.56-.27-.38,.03-.83,.11-1.36,.26-.53,.15-1.07,.34-1.63,.56l-.95-2.21c.71-.33,1.44-.59,2.19-.79s1.46-.32,2.11-.37c1.66-.12,2.9,.14,3.72,.77,.82,.63,1.28,1.63,1.37,3l.32,4.5c.03,.44,.12,.75,.25,.95Zm-3.63-.56l-.14-2.05-.85,.06c-.79,.05-1.36,.23-1.73,.54s-.53,.75-.49,1.33c.03,.47,.18,.82,.44,1.05,.26,.24,.6,.34,1.02,.31,.79-.06,1.37-.47,1.75-1.24Z"/><path class="e" d="M315.54,502.46c-.39,.34-.85,.62-1.39,.84-.54,.22-1.08,.37-1.63,.43-2.52,.28-3.94-.97-4.26-3.74l-.62-5.35-1.63,.19-.28-2.39,1.63-.19-.29-2.5,3.39-.79,.33,2.89,2.65-.31-.09,2.43-2.28,.26,.61,5.3c.06,.54,.19,.91,.39,1.12,.2,.21,.49,.3,.87,.25,.39-.04,.79-.22,1.2-.51l1.4,2.04Z"/><path class="e" d="M321.5,490.33c.76,.13,1.45,.38,2.07,.74l-.95,2.12c-1.03-.44-2.02-.59-2.97-.44-.45,.07-.78,.2-.99,.39s-.3,.42-.26,.69c.03,.22,.12,.38,.25,.5s.37,.23,.73,.32,.89,.18,1.62,.28c1.25,.16,2.21,.47,2.88,.93s1.08,1.18,1.24,2.16c.12,.78,0,1.49-.35,2.13-.36,.64-.9,1.17-1.63,1.6-.73,.43-1.57,.71-2.52,.86-.97,.15-1.89,.14-2.76-.03-.88-.17-1.64-.48-2.31-.92l1.37-2.12c1.08,.6,2.16,.81,3.22,.64,.52-.08,.91-.24,1.18-.47,.27-.23,.37-.52,.32-.87-.04-.27-.13-.48-.28-.62-.14-.14-.39-.25-.74-.34-.35-.08-.91-.17-1.66-.26-1.19-.15-2.11-.48-2.77-.98-.66-.5-1.05-1.19-1.19-2.07-.1-.66,0-1.29,.29-1.87,.3-.59,.78-1.09,1.45-1.51,.66-.42,1.46-.71,2.4-.85,.82-.13,1.61-.13,2.37,0Z"/><path class="e" d="M336.48,493.23l-1.36,.32,1.33,5.64-3.49,.83-3.49-14.76,4.83-1.14c2.02-.48,3.62-.47,4.81,.03,1.19,.5,1.96,1.51,2.32,3.03,.23,.95,.19,1.8-.12,2.54-.3,.74-.89,1.45-1.77,2.12l5.23,5.4-3.94,.93-4.36-4.93Zm-1.93-2.08l1.47-.35c.78-.18,1.32-.5,1.63-.95s.37-1.05,.19-1.82c-.17-.71-.5-1.18-1-1.41-.5-.23-1.18-.24-2.04-.03l-1.26,.3,1.01,4.26Z"/><path class="e" d="M351.86,484.3c1.27,.76,2.19,2.07,2.75,3.94,.35,1.19,.44,2.29,.26,3.31-.18,1.02-.6,1.89-1.27,2.63s-1.57,1.26-2.69,1.6c-1.69,.5-3.18,.38-4.46-.38-1.28-.75-2.2-2.07-2.76-3.94-.35-1.19-.44-2.29-.26-3.31,.18-1.02,.6-1.89,1.27-2.63s1.57-1.26,2.69-1.6c1.71-.51,3.2-.38,4.47,.37Zm-5.01,3.36c-.17,.67-.07,1.59,.28,2.78,.36,1.22,.79,2.06,1.28,2.52,.49,.46,1.08,.59,1.77,.39,.67-.2,1.09-.63,1.26-1.3,.17-.67,.08-1.59-.28-2.78-.36-1.22-.79-2.06-1.28-2.52-.5-.46-1.08-.59-1.77-.39-.67,.2-1.09,.63-1.26,1.3Z"/><path class="e" d="M361.37,479.65c.68,0,1.37,.14,2.07,.41l-.72,2.44c-.87-.28-1.66-.29-2.36-.05-.73,.26-1.18,.72-1.37,1.39-.18,.67-.06,1.6,.36,2.8,.41,1.16,.88,1.91,1.43,2.26,.54,.35,1.16,.4,1.86,.15,.37-.13,.69-.31,.95-.53,.26-.22,.56-.54,.89-.95l2.14,1.52c-.78,1.25-1.86,2.12-3.23,2.61-1.11,.39-2.16,.5-3.14,.31-.98-.19-1.84-.63-2.58-1.34-.74-.7-1.32-1.63-1.73-2.79s-.55-2.26-.43-3.31,.5-1.97,1.14-2.76c.63-.79,1.49-1.37,2.56-1.75,.76-.27,1.48-.4,2.16-.39Z"/><path class="e" d="M365.47,472.72l6.31,15.36-3.2,1.31-6.17-15.02,3.06-1.66Zm8.54,1.89l-1.32,6.05,6,4.59-3.6,1.48-5.61-4.56,1.28-6.22,3.26-1.34Z"/></g><g><path class="e" d="M65.97,346.55l.42,1.23,5.11-1.76,1.09,3.16-13.37,4.6-1.51-4.38c-.63-1.83-.77-3.31-.41-4.46s1.22-1.96,2.59-2.44c.86-.3,1.65-.34,2.36-.12,.71,.21,1.42,.7,2.13,1.45l4.52-5.35,1.23,3.57-4.17,4.5Zm-1.75,1.99l-.46-1.33c-.24-.71-.59-1.18-1.03-1.43-.44-.24-1.01-.25-1.71,0-.64,.22-1.05,.57-1.21,1.05-.17,.48-.11,1.11,.16,1.9l.39,1.14,3.86-1.33Z"/><path class="e" d="M57.08,332.18c.72-1.18,1.95-2.02,3.7-2.52,1.11-.32,2.14-.39,3.09-.22s1.76,.58,2.44,1.21c.68,.63,1.17,1.47,1.46,2.52,.45,1.58,.32,2.97-.39,4.15-.71,1.19-1.95,2.03-3.7,2.53-1.11,.32-2.14,.39-3.09,.22s-1.76-.58-2.44-1.21-1.16-1.47-1.46-2.52c-.46-1.59-.33-2.98,.39-4.16Zm3.09,4.7c.62,.16,1.48,.08,2.6-.23,1.14-.33,1.92-.72,2.36-1.17,.44-.46,.56-1.01,.38-1.65-.18-.63-.58-1.02-1.2-1.18-.62-.16-1.48-.08-2.6,.23-1.14,.33-1.92,.72-2.36,1.17s-.56,1.01-.38,1.65c.18,.63,.58,1.02,1.2,1.18Z"/><path class="e" d="M53.47,322.4c.07-.63,.27-1.26,.58-1.88l2.18,.91c-.35,.78-.44,1.51-.28,2.18,.17,.7,.55,1.17,1.15,1.41,.6,.24,1.48,.22,2.63-.05,1.11-.26,1.86-.63,2.24-1.09s.49-1.04,.33-1.71c-.08-.36-.22-.67-.4-.93s-.45-.57-.79-.92l1.62-1.83c1.08,.85,1.78,1.94,2.09,3.26,.25,1.07,.24,2.05-.03,2.94s-.77,1.64-1.5,2.26c-.73,.62-1.65,1.06-2.76,1.32-1.11,.26-2.15,.28-3.11,.06-.96-.22-1.77-.67-2.44-1.33-.67-.67-1.12-1.52-1.37-2.55-.17-.73-.22-1.41-.15-2.04Z"/><path class="e" d="M47.59,316.77l15.22-2.85,.59,3.17-14.88,2.78-.93-3.1Zm3.34-7.43l5.28,2.35,5.32-4.61,.67,3.57-5.22,4.26-5.44-2.34-.6-3.23Z"/><path class="e" d="M50.11,293.48c.93-.8,2.3-1.31,4.11-1.51,1.11-.12,2.11-.06,3.02,.18,.9,.25,1.64,.66,2.19,1.25,.56,.59,.89,1.32,.99,2.2,.07,.58,0,1.13-.19,1.63-.19,.51-.48,.95-.88,1.34l1.05,.05,.32,2.84-15.04,1.7-.71-3.16,5.72-.65c-.48-.27-.88-.65-1.19-1.13-.31-.48-.5-1.01-.57-1.61-.15-1.28,.25-2.33,1.18-3.13Zm4.49,1.81c-1.28,.14-2.15,.39-2.6,.75-.45,.35-.65,.81-.58,1.38,.08,.72,.57,1.28,1.46,1.68l4.48-.51c.3-.24,.53-.51,.68-.83,.15-.31,.21-.64,.17-.97-.14-1.26-1.34-1.76-3.6-1.5Z"/><path class="e" d="M54.42,280.42l.41,6.7c.9-.16,1.52-.46,1.87-.89s.49-1,.45-1.72c-.03-.43-.13-.85-.31-1.25s-.45-.82-.8-1.28l1.71-1.43c1.08,1.2,1.67,2.57,1.77,4.12,.11,1.75-.33,3.13-1.3,4.13-.97,1-2.33,1.55-4.07,1.66-1.1,.07-2.1-.07-3-.41s-1.63-.87-2.18-1.6c-.56-.73-.87-1.62-.93-2.68-.1-1.56,.32-2.81,1.24-3.76,.92-.94,2.25-1.47,3.99-1.57,.45-.03,.84-.03,1.16-.01Zm-1.89,3.22c-1.65,.13-2.45,.76-2.38,1.9,.03,.56,.26,.98,.69,1.26,.43,.28,1.11,.43,2.05,.44l-.22-3.6h-.14Z"/><path class="e" d="M56.46,269.9c.19-.12,.33-.31,.42-.57l2.11,.64c-.04,.67-.18,1.21-.41,1.64-.23,.43-.6,.76-1.12,1,1.1,.69,1.66,1.77,1.68,3.24,.02,1.07-.28,1.94-.9,2.58-.61,.65-1.43,.98-2.43,1-1.18,.02-2.09-.4-2.73-1.26-.64-.86-.97-2.11-1-3.76l-.02-1.1h-.47c-.64,.02-1.08,.16-1.31,.44-.23,.28-.34,.75-.33,1.43,0,.35,.06,.78,.17,1.28,.11,.5,.26,1.02,.44,1.54l-2.11,.77c-.27-.68-.48-1.37-.63-2.08-.15-.71-.23-1.37-.24-1.99-.02-1.55,.28-2.69,.9-3.42,.63-.73,1.58-1.11,2.86-1.13l4.2-.07c.41,0,.71-.07,.89-.19Zm-.7,3.35l-1.92,.03v.79c.02,.73,.16,1.28,.43,1.64,.26,.36,.67,.53,1.21,.52,.44,0,.77-.12,1-.35,.23-.23,.35-.54,.34-.93-.01-.73-.37-1.3-1.07-1.7Z"/><path class="e" d="M58.44,260.8c.26,.4,.46,.87,.6,1.39,.14,.53,.2,1.05,.18,1.57-.08,2.37-1.41,3.51-4.01,3.44l-5.02-.13-.04,1.53-2.24-.06,.04-1.53-2.35-.06-.28-3.23,2.71,.07,.07-2.49,2.23,.41-.06,2.14,4.98,.13c.5,.01,.87-.06,1.09-.22,.22-.16,.34-.41,.35-.77,0-.37-.1-.76-.32-1.17l2.07-1.03Z"/><path class="e" d="M48.58,253.18c.27-.66,.64-1.24,1.09-1.73l1.73,1.3c-.61,.85-.95,1.72-1.01,2.61-.03,.42,.02,.75,.15,.98s.32,.36,.58,.38c.2,.01,.37-.03,.51-.12,.14-.09,.28-.29,.44-.6,.16-.3,.35-.77,.58-1.41,.4-1.11,.88-1.92,1.44-2.43,.56-.52,1.3-.74,2.22-.68,.73,.05,1.35,.3,1.86,.75,.51,.46,.88,1.06,1.12,1.81,.24,.75,.33,1.58,.27,2.47-.06,.91-.26,1.75-.59,2.51-.34,.76-.77,1.4-1.31,1.91l-1.65-1.68c.77-.86,1.18-1.8,1.25-2.8,.03-.49-.03-.88-.19-1.17-.16-.29-.4-.45-.73-.47-.26-.02-.46,.02-.62,.12-.16,.1-.31,.3-.46,.6-.15,.3-.34,.79-.58,1.46-.38,1.05-.87,1.82-1.46,2.32-.59,.49-1.3,.71-2.13,.66-.62-.04-1.17-.26-1.64-.65-.47-.39-.83-.93-1.08-1.62-.25-.69-.34-1.48-.29-2.36,.05-.77,.21-1.49,.49-2.16Z"/><path class="e" d="M47.21,236.3c.4-.74,.95-1.38,1.64-1.93l1.59,1.78c-.91,.85-1.44,1.82-1.58,2.92-.08,.58-.02,1.05,.17,1.42,.19,.37,.51,.58,.95,.64,.31,.04,.57,0,.79-.12s.44-.36,.66-.71c.23-.35,.51-.89,.85-1.61,.65-1.37,1.35-2.34,2.11-2.93,.76-.58,1.75-.79,2.98-.63,.88,.12,1.62,.44,2.23,.98s1.04,1.24,1.3,2.13c.26,.89,.31,1.9,.16,3.05s-.47,2.14-.95,2.97c-.48,.83-1.07,1.53-1.76,2.08l-1.62-1.92c.53-.48,.95-.99,1.25-1.53,.31-.54,.5-1.15,.59-1.82,.09-.69,.01-1.25-.24-1.69-.25-.44-.64-.69-1.18-.77-.35-.05-.65-.01-.91,.1-.26,.12-.5,.34-.74,.68-.24,.34-.51,.84-.82,1.5-.68,1.49-1.41,2.51-2.18,3.07-.77,.56-1.69,.77-2.74,.63-.81-.11-1.49-.42-2.05-.93-.56-.51-.95-1.18-1.17-1.99-.23-.81-.28-1.7-.15-2.67,.14-1.05,.41-1.95,.81-2.68Z"/><path class="e" d="M52.27,225.52c.32-.55,.75-1.05,1.29-1.49l1.64,1.71c-.63,.58-1.01,1.21-1.13,1.89-.13,.71,.03,1.29,.49,1.75s1.27,.79,2.43,1c1.12,.2,1.95,.17,2.49-.11s.86-.76,.99-1.44c.07-.36,.07-.7,0-1.01s-.18-.7-.36-1.16l2.22-1.03c.65,1.21,.85,2.48,.61,3.82-.2,1.08-.6,1.98-1.2,2.68-.6,.71-1.36,1.2-2.28,1.47s-1.93,.31-3.06,.11c-1.12-.21-2.08-.6-2.87-1.19-.79-.59-1.36-1.32-1.71-2.2-.34-.88-.42-1.84-.23-2.88,.13-.74,.36-1.38,.68-1.93Z"/><path class="e" d="M48.53,218.27c.42-.28,.88-.36,1.4-.25,.52,.11,.91,.38,1.17,.81,.26,.43,.33,.91,.22,1.46-.12,.54-.38,.95-.8,1.22-.41,.27-.88,.35-1.4,.24-.52-.11-.91-.38-1.17-.8s-.34-.9-.22-1.45c.12-.54,.39-.96,.8-1.24Zm5.13,.85l10.59,2.3-.69,3.15-10.59-2.3,.68-3.15Z"/><path class="e" d="M55.73,210.6c.39-.6,.85-1.1,1.39-1.5l1.47,1.59c-.76,.72-1.25,1.51-1.47,2.38-.1,.41-.11,.74-.03,.99,.08,.25,.25,.41,.5,.47,.2,.05,.37,.04,.52-.03,.15-.07,.33-.24,.54-.5,.21-.27,.49-.7,.83-1.28,.59-1.01,1.21-1.72,1.86-2.13s1.41-.49,2.31-.27c.71,.18,1.28,.54,1.69,1.08,.42,.54,.67,1.2,.77,1.98,.1,.78,.03,1.61-.19,2.48-.22,.88-.57,1.67-1.04,2.36-.47,.69-1.01,1.23-1.64,1.64l-1.31-1.95c.91-.71,1.49-1.55,1.74-2.53,.12-.47,.13-.87,.03-1.18-.1-.31-.31-.51-.63-.59-.25-.06-.46-.06-.63,0-.17,.07-.36,.24-.56,.51-.2,.27-.48,.71-.83,1.33-.57,.96-1.19,1.64-1.86,2.01-.67,.38-1.41,.46-2.21,.26-.61-.15-1.11-.47-1.5-.94-.39-.47-.65-1.07-.77-1.79-.12-.72-.07-1.51,.15-2.37,.19-.75,.48-1.43,.87-2.03Z"/><path class="e" d="M58.5,200.95c.42-.58,.9-1.06,1.45-1.44l1.4,1.66c-.79,.69-1.31,1.46-1.57,2.32-.12,.4-.15,.73-.07,.99,.07,.26,.23,.42,.48,.5,.2,.06,.37,.06,.52,0s.34-.22,.56-.48c.22-.26,.52-.68,.88-1.25,.64-.99,1.29-1.67,1.94-2.05,.66-.38,1.43-.43,2.32-.17,.7,.21,1.25,.6,1.65,1.15,.39,.56,.62,1.23,.68,2.02,.06,.79-.03,1.61-.29,2.47-.26,.87-.64,1.64-1.14,2.31s-1.07,1.19-1.7,1.57l-1.23-2.01c.94-.67,1.55-1.49,1.84-2.45,.14-.47,.17-.86,.08-1.18-.09-.32-.29-.52-.6-.62-.25-.07-.46-.08-.63-.02-.17,.06-.37,.22-.58,.49-.21,.26-.51,.69-.89,1.29-.61,.94-1.25,1.58-1.94,1.93-.69,.35-1.43,.4-2.22,.17-.6-.18-1.08-.51-1.46-1-.37-.49-.6-1.1-.69-1.83s0-1.52,.25-2.36c.22-.74,.54-1.41,.96-1.99Z"/><path class="e" d="M63.72,189.21c1.27-.55,2.76-.52,4.48,.09,1.09,.38,1.97,.92,2.64,1.61,.67,.69,1.1,1.49,1.28,2.4,.18,.91,.1,1.88-.27,2.9-.55,1.55-1.46,2.6-2.73,3.16-1.27,.55-2.76,.53-4.48-.08-1.09-.38-1.97-.92-2.64-1.61-.67-.69-1.1-1.49-1.28-2.4-.18-.91-.1-1.88,.27-2.9,.55-1.56,1.46-2.62,2.73-3.17Zm-.21,5.62c.41,.49,1.16,.93,2.25,1.31,1.12,.39,1.98,.53,2.6,.41,.62-.12,1.04-.5,1.26-1.12,.22-.62,.12-1.17-.29-1.66-.41-.49-1.16-.93-2.25-1.31-1.12-.39-1.98-.53-2.6-.41-.62,.12-1.04,.5-1.26,1.12-.22,.62-.12,1.17,.29,1.66Z"/><path class="e" d="M66.37,178.9l2.7,1.64c-.24,.34-.41,.63-.5,.86-.24,.59-.22,1.13,.07,1.6,.29,.47,.8,.96,1.55,1.47l4.98,2.01-1.21,2.99-10.05-4.05,1.05-2.61,2.05,.54c-.6-.51-1.01-1.07-1.22-1.69-.21-.62-.2-1.22,.03-1.8,.15-.37,.33-.68,.54-.95Z"/><path class="e" d="M69.49,172.33c.49-.53,1.03-.94,1.63-1.24l1.17,1.82c-.87,.58-1.49,1.28-1.86,2.1-.17,.38-.24,.71-.2,.97,.04,.26,.18,.45,.41,.55,.19,.08,.36,.1,.52,.06,.16-.04,.37-.17,.62-.4,.25-.23,.6-.6,1.04-1.12,.76-.9,1.49-1.49,2.2-1.78s1.48-.24,2.32,.14c.67,.3,1.16,.75,1.48,1.36,.32,.6,.46,1.3,.42,2.09-.04,.79-.24,1.59-.61,2.41-.37,.83-.85,1.55-1.43,2.14-.58,.6-1.21,1.04-1.89,1.33l-.96-2.15c1.02-.54,1.73-1.27,2.15-2.19,.2-.45,.28-.83,.23-1.16-.05-.33-.22-.56-.52-.69-.24-.11-.44-.14-.62-.1-.18,.04-.39,.17-.64,.41s-.59,.62-1.05,1.16c-.73,.85-1.45,1.41-2.18,1.66-.73,.26-1.47,.21-2.22-.13-.57-.26-1.01-.65-1.31-1.18-.31-.53-.45-1.17-.44-1.9,0-.73,.19-1.5,.56-2.31,.32-.71,.72-1.32,1.21-1.85Z"/></g></g></svg>