<?xml version="1.0" encoding="UTF-8"?><svg xmlns="http://www.w3.org/2000/svg" xmlns:xlink="http://www.w3.org/1999/xlink" viewBox="0 0 60 59.29"><defs><style>.e{fill:none;}.f{fill:#fcf300;}.g{clip-path:url(#d);}</style><clipPath id="d"><rect class="e" x="0" y="-.36" width="60" height="60"/></clipPath></defs><g id="a"/><g id="b"/><g id="c"><g class="g"><path class="f" d="M42.41,9.53c-1.59-.7-3.44,.01-4.15,1.6l-4.77,10.76c-.34-.09-.68-.18-1.03-.25V9.57c0-1.74-1.41-3.14-3.14-3.14s-3.14,1.41-3.14,3.14v12.4c-5.36,1.63-9.26,6.61-9.26,12.51,0,5.49,3.38,10.18,8.17,12.12v25.48c0,2.27,1.84,4.11,4.11,4.11h1.6c2.27,0,4.11-1.84,4.11-4.11v-25.48c4.79-1.94,8.17-6.63,8.17-12.12,0-3.74-1.58-7.1-4.09-9.48l5.02-11.32c.7-1.59-.01-3.44-1.6-4.15Z"/></g></g></svg>